<?xml version="1.0" encoding="iso-8859-1"?>
<!-- Generator: Adobe Illustrator 19.0.0, SVG Export Plug-In . SVG Version: 6.00 Build 0)  -->
<svg version="1.1" id="Layer_1" xmlns="http://www.w3.org/2000/svg" xmlns:xlink="http://www.w3.org/1999/xlink" x="0px" y="0px"
	 viewBox="0 0 512 512" style="enable-background:new 0 0 512 512;" xml:space="preserve">
<g>
	<g>
		<path d="M493.798,285.867h-50.065v-15.932c0-10.044-8.166-18.202-18.202-18.202h-31.863c-10.035,0-18.202,8.158-18.202,18.202
			v15.932h-59.733V192h24.465c10.035,0,18.202-8.166,18.202-18.202v-31.863c0-10.044-8.166-18.202-18.202-18.202H303.94
			l8.533-17.067H358.4c14.114,0,25.6-11.486,25.6-25.6s-11.486-25.6-25.6-25.6H153.6c-14.114,0-25.6,11.486-25.6,25.6
			s11.486,25.6,25.6,25.6h45.926l8.533,17.067h-36.258c-10.035,0-18.202,8.158-18.202,18.202v31.863
			c0,10.035,8.166,18.202,18.202,18.202h24.465v93.867h-59.733v-15.932c0-10.044-8.166-18.202-18.202-18.202H86.468
			c-10.035,0-18.202,8.158-18.202,18.202v15.932H18.202C8.166,285.867,0,294.025,0,304.068v100.13
			C0,414.234,8.166,422.4,18.202,422.4h50.065v15.932c0,10.035,8.166,18.202,18.202,18.202h31.863
			c10.035,0,18.202-8.166,18.202-18.202V422.4h238.933v15.932c0,10.035,8.166,18.202,18.202,18.202h31.863
			c10.035,0,18.202-8.166,18.202-18.202V422.4h50.065c10.035,0,18.202-8.166,18.202-18.202v-100.13
			C512,294.025,503.834,285.867,493.798,285.867z M119.467,294.4v119.467v24.465c0,0.623-0.512,1.135-1.135,1.135H86.468
			c-0.623,0-1.135-0.512-1.135-1.135v-24.465V294.4v-24.465c0-0.631,0.512-1.135,1.135-1.135h31.863
			c0.623,0,1.135,0.503,1.135,1.135V294.4z M293.393,106.667l-8.533,17.067H227.14l-8.533-17.067H293.393z M171.802,174.933
			c-0.623,0-1.135-0.512-1.135-1.135v-31.863c0-0.631,0.512-1.135,1.135-1.135h50.065h68.267h50.065
			c0.623,0,1.135,0.503,1.135,1.135v31.863c0,0.623-0.512,1.135-1.135,1.135h-24.465H196.267H171.802z M426.667,294.4v119.467
			v24.465c0,0.623-0.512,1.135-1.135,1.135h-31.863c-0.623,0-1.135-0.512-1.135-1.135v-24.465V294.4v-24.465
			c0-0.631,0.512-1.135,1.135-1.135h31.863c0.623,0,1.135,0.503,1.135,1.135V294.4z"/>
	</g>
</g>
<g>
</g>
<g>
</g>
<g>
</g>
<g>
</g>
<g>
</g>
<g>
</g>
<g>
</g>
<g>
</g>
<g>
</g>
<g>
</g>
<g>
</g>
<g>
</g>
<g>
</g>
<g>
</g>
<g>
</g>
</svg>
