<?xml version="1.0" encoding="utf-8"?>
<!-- Generator: Adobe Illustrator 19.0.0, SVG Export Plug-In . SVG Version: 6.00 Build 0)  -->
<svg version="1.1" id="Capa_1" xmlns="http://www.w3.org/2000/svg" xmlns:xlink="http://www.w3.org/1999/xlink" x="0px" y="0px"
	 viewBox="-139 51 512 512" style="enable-background:new -139 51 512 512;" xml:space="preserve">
<g>
	<g>
		<path d="M305,447L149.5,291.4L-32.3,109.6h-14.2l-2.9,7.4c-7.7,19.5-10.9,39.3-9.5,57.5c1.7,20.7,9.5,38.7,22.8,51.9l141.9,141.9
			l18.7-18.7l131.2,146.7c13,13,35.5,13.8,49.3,0C318.6,482.7,318.6,460.6,305,447z"/>
	</g>
</g>
<g>
	<g>
		<path d="M40.1,335.5L-71,446.6c-13.6,13.6-13.6,35.7,0,49.3c12.9,12.9,35.3,14.1,49.3,0L89.4,384.8L40.1,335.5z"/>
	</g>
</g>
<g>
	<g>
		<path d="M298.5,175.7l-63,63L219,222.3l63-63l-16.4-16.4l-63,63l-16.4-16.4l63-63l-16.4-16.4l-82.2,82.2
			c-10.1,10.1-16.1,23.4-16.9,37.6c-0.2,3.6-1,7.1-2.4,10.5l53.4,53.4c3.4-1.4,6.9-2.2,10.5-2.4c14.2-0.8,27.5-6.9,37.6-16.9
			l82.2-82.2L298.5,175.7z"/>
	</g>
</g>
</svg>
