<?xml version="1.0" encoding="utf-8"?>
<!-- Generator: Adobe Illustrator 19.0.0, SVG Export Plug-In . SVG Version: 6.00 Build 0)  -->
<svg version="1.1" id="Capa_1" xmlns="http://www.w3.org/2000/svg" xmlns:xlink="http://www.w3.org/1999/xlink" x="0px" y="0px"
	 viewBox="-221 132.9 348.1 348.1" style="enable-background:new -221 132.9 348.1 348.1;" xml:space="preserve">
<style type="text/css">
	.st0{fill:#21B2A5;}
</style>
<g>
	<g>
		<g>
			<path class="st0" d="M99.3,394l-46.4-46.4c-9.2-9.1-24.5-8.9-34,0.7l-23.4,23.4c-1.5-0.8-3-1.6-4.6-2.6
				c-14.7-8.2-34.9-19.4-56.1-40.6c-21.3-21.3-32.5-41.5-40.7-56.3c-0.9-1.6-1.7-3.1-2.5-4.5l15.7-15.6l7.7-7.7
				c9.6-9.6,9.8-24.8,0.6-34l-46.4-46.4c-9.2-9.2-24.5-9-34,0.6l-13.1,13.1l0.3,0.3c-4.4,5.6-8,12.1-10.8,19
				c-2.5,6.6-4.1,12.9-4.8,19.2c-6.1,50.7,17.1,97,80,159.9c87,87,157,80.4,160,80.1c6.5-0.8,12.9-2.3,19.3-4.8
				c6.9-2.7,13.4-6.4,18.9-10.7l0.3,0.3l13.2-12.9C108.2,418.6,108.5,403.2,99.3,394z"/>
		</g>
	</g>
</g>
</svg>
