<?xml version="1.0" encoding="utf-8"?>
<!-- Generator: Adobe Illustrator 19.0.0, SVG Export Plug-In . SVG Version: 6.00 Build 0)  -->
<svg version="1.1" id="Capa_1" xmlns="http://www.w3.org/2000/svg" xmlns:xlink="http://www.w3.org/1999/xlink" x="0px" y="0px"
	 viewBox="4 -4 58 58" style="enable-background:new 4 -4 58 58;" xml:space="preserve">
<style type="text/css">
	.st0{fill:#21B2A5;}
</style>
<path class="st0" d="M54.7,44.2C59.2,39.1,62,32.4,62,25c0-7.7-3-14.6-7.9-19.8v0c0,0,0,0,0,0C49-0.2,41.9-3.7,34-4l0,0l-0.6,0
	c-0.1,0-0.3,0-0.4,0s-0.3,0-0.4,0L32-4l0,0c-7.9,0.3-15,3.7-20.1,9.1c0,0,0,0,0,0c0,0,0,0,0,0C7,10.4,4,17.3,4,25
	c0,7.4,2.8,14.1,7.3,19.2c0,0,0,0,0,0c0,0,0,0,0.1,0.1C16.5,50,23.8,53.7,32,54l0,0l0.6,0c0.1,0,0.3,0,0.4,0s0.3,0,0.4,0l0.6,0l0,0
	C42.2,53.7,49.5,50,54.7,44.2C54.6,44.3,54.7,44.3,54.7,44.2C54.7,44.2,54.7,44.2,54.7,44.2z M6,26h12c0.1,4.2,0.9,8.4,2.4,12.2
	c-2.8,1-5.6,2.4-8.1,4.1C8.6,37.9,6.3,32.2,6,26z M12.9,7c2.5,1.6,5.1,2.9,7.9,3.9C19.1,15,18.1,19.4,18,24H6
	C6.3,17.5,8.8,11.6,12.9,7z M60,24H48c-0.1-4.6-1.1-9-2.8-13.1c2.8-1,5.4-2.3,7.9-3.9C57.2,11.6,59.7,17.5,60,24z M32,11
	c-2.9-0.1-5.7-0.5-8.5-1.3c2-4.2,4.9-7.9,8.5-11V11z M32,13v11H20c0.1-4.3,1-8.6,2.7-12.5C25.7,12.4,28.8,12.9,32,13z M34,13
	c3.2-0.1,6.3-0.6,9.3-1.4c1.6,3.9,2.5,8.1,2.7,12.5H34V13z M34,11V-1.4c3.6,3.1,6.4,6.9,8.5,11C39.7,10.4,36.9,10.9,34,11z
	 M44.4,9.1c-1.9-4-4.6-7.7-7.9-10.8C42.4-1,47.6,1.7,51.7,5.6C49.4,7,47,8.2,44.4,9.1z M21.6,9.1c-2.5-0.9-5-2.1-7.3-3.5
	c4.1-3.9,9.3-6.6,15.2-7.3C26.2,1.4,23.5,5,21.6,9.1z M20,26h12v10c-3.3,0.1-6.5,0.6-9.7,1.5C20.9,33.9,20.1,30,20,26z M32,38v13.3
	c-3.8-3.3-6.8-7.4-8.9-11.9C26,38.6,29,38.1,32,38z M34,51.4V38c3,0.1,6,0.6,8.9,1.4C40.8,43.9,37.8,48,34,51.4z M34,36V26h12
	c-0.1,4-0.9,7.9-2.3,11.6C40.5,36.6,37.3,36.1,34,36z M48,26h12c-0.2,6.2-2.6,11.9-6.3,16.3c-2.5-1.7-5.3-3.1-8.1-4.1
	C47,34.4,47.9,30.2,48,26z M13.7,43.8c2.4-1.6,4.9-2.8,7.5-3.8c1.9,4.4,4.7,8.3,8.3,11.7C23.3,51,17.8,48.1,13.7,43.8z M36.5,51.8
	c3.5-3.4,6.3-7.3,8.3-11.7c2.6,0.9,5.2,2.2,7.5,3.8C48.2,48.1,42.7,51,36.5,51.8z"/>
</svg>
